<svg id="Layer_1" data-name="Layer 1" xmlns="http://www.w3.org/2000/svg" viewBox="0 0 200 200"><defs><style>.cls-1{fill:#1d1d1b;}.cls-2{fill:#fff;}</style></defs><title>C2</title><path class="cls-1" d="M168.73,174.56a100,100,0,1,1-.1-149.23C207,59.42,155.82,116.88,117.5,82.8a23.09,23.09,0,1,0,0,34.42C155.69,83,207,140.38,168.73,174.56Z"/><path class="cls-2" d="M163.24,168.42a91.74,91.74,0,1,1-.08-136.93c30.1,26.78-10.07,71.94-40.18,45.15a31.33,31.33,0,1,0,0,46.72C153,96.5,193.28,141.56,163.24,168.42Z"/><path class="cls-1" d="M157.75,162.27a83.51,83.51,0,1,1-.07-124.63c21.89,19.48-7.33,52.32-29.22,32.84a39.57,39.57,0,1,0,0,59C150.29,110,179.59,142.74,157.75,162.27Z"/><path class="cls-2" d="M152.25,156.13A75.26,75.26,0,1,1,152.2,43.8c13.68,12.17-4.58,32.7-18.26,20.52a47.81,47.81,0,1,0,0,71.33C147.6,123.44,165.91,143.92,152.25,156.13Z"/><path class="cls-1" d="M146.39,149.57a66.47,66.47,0,1,1,0-99.21c4.93,4.38-1.65,11.77-6.57,7.39a56.61,56.61,0,1,0,0,84.45C144.72,137.81,151.31,145.18,146.39,149.57Z"/></svg>