<svg id="Layer_1" data-name="Layer 1" xmlns="http://www.w3.org/2000/svg" viewBox="0 0 200 200"><defs><style>.cls-1{fill:#1d1d1b;}</style></defs><title>C3</title><path class="cls-1" d="M100,200A100,100,0,0,1,0,100H0v0H0A100,100,0,0,1,100,0h0a99.86,99.86,0,0,1,66.53,25.33h0c9.69,8.6,13.81,18.82,13.8,28.68h0c0,10.55-4.66,20.64-11.95,28.11h0c-7.29,7.47-17.26,12.35-28,12.35h0c-8.6,0-17.65-3.18-26-10.6h0A21.53,21.53,0,0,0,100,78.36h0A21.65,21.65,0,0,0,78.35,100h0A21.65,21.65,0,0,0,100,121.64h0a21.4,21.4,0,0,0,14.37-5.5h0c8.34-7.47,17.41-10.67,26-10.67h0c10.69,0,20.66,4.88,28,12.34h0c7.29,7.47,12,17.56,12,28.11h0c0,9.83-4.09,20-13.72,28.63h0l-.78-.87.78.87A99.79,99.79,0,0,1,100,200h0ZM2.33,100v0h0A97.67,97.67,0,0,0,100,197.67h0a97.46,97.46,0,0,0,65.05-24.85h0c9.19-8.23,12.94-17.71,12.95-26.89h0c0-9.86-4.38-19.41-11.3-26.49h0c-6.92-7.08-16.32-11.64-26.29-11.64h0c-8.05,0-16.51,3-24.49,10.08h0A23.74,23.74,0,0,1,100,124h-.18A24,24,0,0,1,76,100h0v0h0A24,24,0,0,1,99.95,76H100a23.87,23.87,0,0,1,16,6.1h0c8,7.08,16.4,10,24.43,10h0c10,0,19.37-4.57,26.29-11.65h0C173.63,73.42,178,63.86,178,54h0c0-9.21-3.78-18.71-13-26.94h0A97.53,97.53,0,0,0,100,2.33h0A97.67,97.67,0,0,0,2.33,100Z"/><path class="cls-1" d="M100,191.85A91.85,91.85,0,0,1,8.15,100h0v0h0A91.85,91.85,0,0,1,100,8.15h0a91.75,91.75,0,0,1,61.12,23.27h0c7.66,6.8,10.93,14.91,10.92,22.72h0a32.31,32.31,0,0,1-9.46,22.26h0a31.26,31.26,0,0,1-22.14,9.78h0c-6.82,0-14-2.53-20.58-8.4h0A29.66,29.66,0,0,0,100,70.21h0A29.79,29.79,0,0,0,70.21,100h0A29.79,29.79,0,0,0,100,129.79h0a29.56,29.56,0,0,0,19.83-7.57h0c6.59-5.9,13.78-8.45,20.62-8.45h0a31.28,31.28,0,0,1,22.14,9.77h0a32.29,32.29,0,0,1,9.47,22.26h0c0,7.79-3.25,15.88-10.87,22.68h0A91.61,91.61,0,0,1,100,191.85h0Zm0-181.38A89.52,89.52,0,0,0,10.47,100h0v0h0A89.52,89.52,0,0,0,100,189.53h0a89.28,89.28,0,0,0,59.62-22.77h0c7.18-6.43,10.08-13.8,10.09-20.95h0a30,30,0,0,0-8.8-20.64h0a29,29,0,0,0-20.48-9.07h0c-6.27,0-12.84,2.29-19.07,7.85h0A31.9,31.9,0,0,1,100,132.12h-.09a32.12,32.12,0,0,1-32-32.11h0A32.12,32.12,0,0,1,100,67.88h0A32,32,0,0,1,121.42,76h0c6.22,5.53,12.78,7.8,19,7.81h0a28.94,28.94,0,0,0,20.48-9.08h0a30,30,0,0,0,8.8-20.64h0c0-7.17-2.93-14.55-10.14-21h0A89.42,89.42,0,0,0,100,10.47h0Z"/><path class="cls-1" d="M100,183.71A83.71,83.71,0,0,1,16.29,100h0v0h0A83.71,83.71,0,0,1,100,16.29h0a83.6,83.6,0,0,1,55.7,21.21h0c5.63,5,8.06,11,8,16.76h0a23.82,23.82,0,0,1-7,16.42h0a23.06,23.06,0,0,1-16.33,7.21h0a22.64,22.64,0,0,1-15.17-6.19h0A37.82,37.82,0,0,0,100,62.07h0A37.94,37.94,0,0,0,62.06,100h0A37.93,37.93,0,0,0,100,137.93h0a37.71,37.71,0,0,0,25.25-9.64h0a22.63,22.63,0,0,1,15.21-6.22h0a23.07,23.07,0,0,1,16.33,7.2h0a23.8,23.8,0,0,1,7,16.41h0c0,5.75-2.41,11.73-8,16.73h0l-.78-.87.77.87A83.49,83.49,0,0,1,100,183.71h0ZM18.62,100v0h0A81.38,81.38,0,0,0,100,181.38h0a81.16,81.16,0,0,0,54.2-20.7h0c5.16-4.62,7.22-9.88,7.23-15h0a21.49,21.49,0,0,0-6.31-14.79h0a20.75,20.75,0,0,0-14.67-6.5h0c-4.48,0-9.18,1.63-13.66,5.63h0A40,40,0,0,1,100,140.26h-.1A40.26,40.26,0,0,1,59.74,100h0A40.26,40.26,0,0,1,100,59.74h0A40.16,40.16,0,0,1,126.83,70h0c4.47,4,9.16,5.59,13.63,5.6h0A20.74,20.74,0,0,0,155.13,69h0a21.5,21.5,0,0,0,6.31-14.79h0c0-5.12-2.09-10.4-7.27-15h0A81.27,81.27,0,0,0,100,18.62h0A81.38,81.38,0,0,0,18.62,100Z"/><path class="cls-1" d="M100,175.56h0A75.57,75.57,0,0,1,24.44,100h0v0h0A75.56,75.56,0,0,1,100,24.44h0A75.45,75.45,0,0,1,150.3,43.59h0a14.3,14.3,0,0,1,5.18,10.8h0A15.31,15.31,0,0,1,151,64.95h0a14.84,14.84,0,0,1-10.52,4.64h0a14.59,14.59,0,0,1-9.77-4h0A46,46,0,0,0,100,53.92h0A46.08,46.08,0,0,0,53.92,100h0A46.08,46.08,0,0,0,100,146.08h0a45.85,45.85,0,0,0,30.65-11.72h0a14.59,14.59,0,0,1,9.8-4h0A14.86,14.86,0,0,1,151,135h0a15.3,15.3,0,0,1,4.48,10.56h0a14.31,14.31,0,0,1-5.15,10.78h0A75.33,75.33,0,0,1,100,175.56h0ZM26.76,100h0A73.24,73.24,0,0,0,100,173.23h0a73,73,0,0,0,48.77-18.63h0a12,12,0,0,0,4.38-9h0a13,13,0,0,0-3.82-8.94h0a12.54,12.54,0,0,0-8.85-3.93h0a12.24,12.24,0,0,0-8.25,3.41h0A48.18,48.18,0,0,1,100,148.41H100A48.41,48.41,0,0,1,51.59,100h0A48.41,48.41,0,0,1,100,51.59h0a48.31,48.31,0,0,1,32.24,12.28h0a12.25,12.25,0,0,0,8.23,3.39h0a12.53,12.53,0,0,0,8.85-3.93h0a13,13,0,0,0,3.82-8.94h0a12,12,0,0,0-4.4-9.06h0A73.12,73.12,0,0,0,100,26.76h0A73.24,73.24,0,0,0,26.76,100Z"/><path class="cls-1" d="M100,166.87A66.88,66.88,0,0,1,33.13,100h0v0h0A66.87,66.87,0,0,1,100,33.13h0a66.74,66.74,0,0,1,44.51,17h0a5.9,5.9,0,0,1,2.11,4.44h0a6.26,6.26,0,0,1-1.83,4.32h0a6.08,6.08,0,0,1-4.32,1.89h0a6,6,0,0,1-4-1.62h0A54.66,54.66,0,0,0,100,45.23h0A54.77,54.77,0,0,0,45.23,100h0v0A54.77,54.77,0,0,0,100,154.77h0a54.53,54.53,0,0,0,36.47-13.93h0a6,6,0,0,1,4-1.63h0a6.09,6.09,0,0,1,4.32,1.89h0a6.25,6.25,0,0,1,1.83,4.32h0a5.9,5.9,0,0,1-2.1,4.44h0a66.64,66.64,0,0,1-44.53,17h0ZM35.45,100h0A64.55,64.55,0,0,0,100,164.55h0a64.31,64.31,0,0,0,43-16.42h0a3.56,3.56,0,0,0,1.33-2.7h0a3.93,3.93,0,0,0-1.16-2.7h0a3.77,3.77,0,0,0-2.65-1.19h0a3.66,3.66,0,0,0-2.47,1h0a56.87,56.87,0,0,1-38,14.52H100A57.1,57.1,0,0,1,42.9,100h0s0,0,0,0h0A57.1,57.1,0,0,1,100,42.9h0a57,57,0,0,1,38,14.48h0a3.66,3.66,0,0,0,2.47,1h0a3.77,3.77,0,0,0,2.65-1.19h0a3.94,3.94,0,0,0,1.16-2.7h0A3.56,3.56,0,0,0,143,51.81h0a64.42,64.42,0,0,0-43-16.36h0A64.55,64.55,0,0,0,35.45,100Z"/></svg>